<?xml version="1.0" encoding="UTF-8" standalone="no"?>
<!-- Generated by graphviz version 2.38.0 (20140413.2041)
 -->

<!-- Title: %341 Pages: 1 -->

<svg
   xmlns:dc="http://purl.org/dc/elements/1.1/"
   xmlns:cc="http://creativecommons.org/ns#"
   xmlns:rdf="http://www.w3.org/1999/02/22-rdf-syntax-ns#"
   xmlns:svg="http://www.w3.org/2000/svg"
   xmlns="http://www.w3.org/2000/svg"
   xmlns:sodipodi="http://sodipodi.sourceforge.net/DTD/sodipodi-0.dtd"
   xmlns:inkscape="http://www.inkscape.org/namespaces/inkscape"
   width="1481.4524pt"
   height="1140.7463pt"
   viewBox="0 0 1481.4524 1139.7116"
   version="1.1"
   id="svg137"
   sodipodi:docname="combined.svg"
   inkscape:version="0.92.1 r15371">
  <metadata
     id="metadata143">
    <rdf:RDF>
      <cc:Work
         rdf:about="">
        <dc:format>image/svg+xml</dc:format>
        <dc:type
           rdf:resource="http://purl.org/dc/dcmitype/StillImage" />
        <dc:title />
      </cc:Work>
    </rdf:RDF>
  </metadata>
  <defs
     id="defs141" />
  <sodipodi:namedview
     pagecolor="#ffffff"
     bordercolor="#666666"
     borderopacity="1"
     objecttolerance="10"
     gridtolerance="10"
     guidetolerance="10"
     inkscape:pageopacity="0"
     inkscape:pageshadow="2"
     inkscape:window-width="1280"
     inkscape:window-height="961"
     id="namedview139"
     showgrid="false"
     inkscape:zoom="0.40136054"
     inkscape:cx="723.27667"
     inkscape:cy="1000.5234"
     inkscape:window-x="-8"
     inkscape:window-y="-8"
     inkscape:window-maximized="1"
     inkscape:current-layer="svg137" />
  <g
     id="g5022"
     transform="translate(40.175847)">
    <g
       transform="translate(4,768.48007)"
       id="node1"
       class="node">
      <title
         id="title6">qi</title>
      <circle
         cx="27"
         cy="-430.79999"
         id="ellipse8"
         r="1.8"
         style="fill:#000000;stroke:#000000" />
    </g>
    <g
       transform="translate(4,768.48007)"
       id="node2"
       class="node">
      <title
         id="title11">X</title>
      <ellipse
         cx="27"
         cy="-374"
         rx="27"
         ry="18"
         id="ellipse13"
         style="fill:none;stroke:#000000" />
      <text
         x="27"
         y="-370.29999"
         font-size="14.00"
         id="text15"
         style="font-size:14px;font-family:'Times New Roman', serif;text-anchor:middle">X</text>
    </g>
    <g
       transform="translate(4,768.48007)"
       id="edge1"
       class="edge">
      <title
         id="title18">qi-&gt;X</title>
      <path
         d="m 27,-428.849 c 0,3.364 0,15.124 0,26.799"
         id="path20"
         inkscape:connector-curvature="0"
         style="fill:none;stroke:#000000" />
      <polygon
         points="23.5001,-402.025 30.5001,-402.025 27,-392.025 "
         id="polygon22"
         style="fill:#000000;stroke:#000000" />
    </g>
    <g
       transform="translate(4,768.48007)"
       id="edge2"
       class="edge">
      <title
         id="title25">X-&gt;X</title>
      <path
         d="M 53.7949,-377.368 C 63.7804,-377.478 72,-376.355 72,-374 c 0,1.472 -3.2108,2.463 -8.0567,2.972"
         id="path27"
         inkscape:connector-curvature="0"
         style="fill:none;stroke:#000000" />
      <polygon
         points="63.9237,-367.525 53.7949,-370.632 63.6508,-374.52 "
         id="polygon29"
         style="fill:#000000;stroke:#000000" />
      <text
         x="75.5"
         y="-370.29999"
         font-size="14.00"
         id="text31"
         style="font-size:14px;font-family:'Times New Roman', serif;text-anchor:middle">1</text>
    </g>
    <g
       transform="translate(4,768.48007)"
       id="edge3"
       class="edge">
      <title
         id="title34">X-&gt;X</title>
      <path
         d="M 52.5573,-379.988 C 71.2603,-382.008 90,-380.012 90,-374 c 0,4.931 -12.6101,7.161 -27.466,6.688"
         id="path36"
         inkscape:connector-curvature="0"
         style="fill:none;stroke:#000000" />
      <polygon
         points="52.5573,-368.012 62.7777,-370.803 62.2879,-363.821 "
         id="polygon38"
         style="fill:#000000;stroke:#000000" />
      <text
         x="93.5"
         y="-370.29999"
         font-size="14.00"
         id="text40"
         style="font-size:14px;font-family:'Times New Roman', serif;text-anchor:middle">0</text>
    </g>
    <g
       transform="translate(4,768.48007)"
       id="node3"
       class="node">
      <title
         id="title43">0</title>
      <ellipse
         cx="27"
         cy="-287"
         rx="27"
         ry="18"
         id="ellipse45"
         style="fill:none;stroke:#000000" />
      <text
         x="27"
         y="-283.29999"
         font-size="14.00"
         id="text47"
         style="font-size:14px;font-family:'Times New Roman', serif;text-anchor:middle">0</text>
    </g>
    <g
       transform="translate(4,768.48007)"
       id="edge4"
       class="edge">
      <title
         id="title50">X-&gt;0</title>
      <path
         d="m 27,-355.799 c 0,11.636 0,27.251 0,40.562"
         id="path52"
         inkscape:connector-curvature="0"
         style="fill:none;stroke:#000000" />
      <polygon
         points="30.5001,-315.175 27,-305.175 23.5001,-315.175 "
         id="polygon54"
         style="fill:#000000;stroke:#000000" />
      <text
         x="30.5"
         y="-326.79999"
         font-size="14.00"
         id="text56"
         style="font-size:14px;font-family:'Times New Roman', serif;text-anchor:middle">1</text>
    </g>
    <g
       transform="translate(4,768.48007)"
       id="node4"
       class="node">
      <title
         id="title59">1</title>
      <ellipse
         cx="27"
         cy="-200"
         rx="27"
         ry="18"
         id="ellipse61"
         style="fill:none;stroke:#000000" />
      <text
         x="27"
         y="-196.3"
         font-size="14.00"
         id="text63"
         style="font-size:14px;font-family:'Times New Roman', serif;text-anchor:middle">1</text>
    </g>
    <g
       transform="translate(4,768.48007)"
       id="edge5"
       class="edge">
      <title
         id="title66">0-&gt;1</title>
      <path
         d="m 20.1119,-269.556 c -2.0759,5.762 -4.077,12.347 -5.1119,18.556 -1.2915,7.749 -0.2771,16.079 1.6105,23.674"
         id="path68"
         inkscape:connector-curvature="0"
         style="fill:none;stroke:#000000" />
      <polygon
         points="13.3275,-226.092 20.0234,-228.133 19.5911,-217.547 "
         id="polygon70"
         style="fill:#000000;stroke:#000000" />
      <text
         x="18.5"
         y="-239.8"
         font-size="14.00"
         id="text72"
         style="font-size:14px;font-family:'Times New Roman', serif;text-anchor:middle">1</text>
    </g>
    <g
       transform="translate(4,768.48007)"
       id="edge6"
       class="edge">
      <title
         id="title75">0-&gt;1</title>
      <path
         d="m 27,-268.799 c 0,11.636 0,27.251 0,40.562"
         id="path77"
         inkscape:connector-curvature="0"
         style="fill:none;stroke:#000000" />
      <polygon
         points="30.5001,-228.175 27,-218.175 23.5001,-228.175 "
         id="polygon79"
         style="fill:#000000;stroke:#000000" />
      <text
         x="30.5"
         y="-239.8"
         font-size="14.00"
         id="text81"
         style="font-size:14px;font-family:'Times New Roman', serif;text-anchor:middle">0</text>
    </g>
    <g
       transform="translate(4,768.48007)"
       id="node5"
       class="node">
      <title
         id="title84">2</title>
      <ellipse
         cx="27"
         cy="-113"
         rx="27"
         ry="18"
         id="ellipse86"
         style="fill:none;stroke:#000000" />
      <text
         x="27"
         y="-109.3"
         font-size="14.00"
         id="text88"
         style="font-size:14px;font-family:'Times New Roman', serif;text-anchor:middle">2</text>
    </g>
    <g
       transform="translate(4,768.48007)"
       id="edge7"
       class="edge">
      <title
         id="title91">1-&gt;2</title>
      <path
         d="m 20.1119,-182.556 c -2.0759,5.762 -4.077,12.347 -5.1119,18.556 -1.2915,7.749 -0.2771,16.079 1.6105,23.674"
         id="path93"
         inkscape:connector-curvature="0"
         style="fill:none;stroke:#000000" />
      <polygon
         points="13.3275,-139.092 20.0234,-141.133 19.5911,-130.547 "
         id="polygon95"
         style="fill:#000000;stroke:#000000" />
      <text
         x="18.5"
         y="-152.8"
         font-size="14.00"
         id="text97"
         style="font-size:14px;font-family:'Times New Roman', serif;text-anchor:middle">1</text>
    </g>
    <g
       transform="translate(4,768.48007)"
       id="edge8"
       class="edge">
      <title
         id="title100">1-&gt;2</title>
      <path
         d="m 27,-181.799 c 0,11.636 0,27.251 0,40.562"
         id="path102"
         inkscape:connector-curvature="0"
         style="fill:none;stroke:#000000" />
      <polygon
         points="30.5001,-141.175 27,-131.175 23.5001,-141.175 "
         id="polygon104"
         style="fill:#000000;stroke:#000000" />
      <text
         x="30.5"
         y="-152.8"
         font-size="14.00"
         id="text106"
         style="font-size:14px;font-family:'Times New Roman', serif;text-anchor:middle">0</text>
    </g>
    <g
       transform="translate(4,768.48007)"
       id="node6"
       class="node">
      <title
         id="title109">3</title>
      <circle
         cx="27"
         cy="-22"
         id="ellipse111"
         r="18"
         style="fill:none;stroke:#000000" />
      <circle
         cx="27"
         cy="-22"
         id="ellipse113"
         r="22"
         style="fill:none;stroke:#000000" />
      <text
         x="27"
         y="-18.299999"
         font-size="14.00"
         id="text115"
         style="font-size:14px;font-family:'Times New Roman', serif;text-anchor:middle">3</text>
    </g>
    <g
       transform="translate(4,768.48007)"
       id="edge9"
       class="edge">
      <title
         id="title118">2-&gt;3</title>
      <path
         d="M 20.1119,-95.5563 C 18.036,-89.7939 16.0349,-83.2095 15,-77 c -1.3283,7.9699 -0.4875,16.5337 1.2402,24.4401"
         id="path120"
         inkscape:connector-curvature="0"
         style="fill:none;stroke:#000000" />
      <polygon
         points="12.93,-51.3926 19.6882,-53.2164 18.9145,-42.6499 "
         id="polygon122"
         style="fill:#000000;stroke:#000000" />
      <text
         x="18.5"
         y="-65.800003"
         font-size="14.00"
         id="text124"
         style="font-size:14px;font-family:'Times New Roman', serif;text-anchor:middle">1</text>
    </g>
    <g
       transform="translate(4,768.48007)"
       id="edge10"
       class="edge">
      <title
         id="title127">2-&gt;3</title>
      <path
         d="m 27,-94.8399 c 0,11.3992 0,26.7063 0,40.2618"
         id="path129"
         inkscape:connector-curvature="0"
         style="fill:none;stroke:#000000" />
      <polygon
         points="30.5001,-54.1905 27,-44.1905 23.5001,-54.1906 "
         id="polygon131"
         style="fill:#000000;stroke:#000000" />
      <text
         x="30.5"
         y="-65.800003"
         font-size="14.00"
         id="text133"
         style="font-size:14px;font-family:'Times New Roman', serif;text-anchor:middle">0</text>
    </g>
  </g>
  <g
     id="node1-1"
     class="node"
     transform="matrix(0.99987411,0,0,0.99987411,294.45187,1136.2295)">
    <title
       id="title4624">__init</title>
    <circle
       style="fill:#000000;stroke:#000000"
       r="1.8"
       cx="1.8"
       cy="-572.99701"
       id="ellipse4626" />
  </g>
  <g
     id="edge1-8"
     class="edge"
     transform="matrix(0.99987411,0,0,0.99987411,294.45187,1136.2295)">
    <title
       id="title4636">__init-&gt;{X}</title>
    <path
       style="fill:none;stroke:#000000"
       inkscape:connector-curvature="0"
       d="m 3.62428,-572.997 c 5.12183,0 20.24642,0 35.31722,0"
       id="path4638" />
    <polygon
       style="fill:#000000;stroke:#000000"
       points="49.243,-572.997 39.243,-569.497 39.2431,-576.497 "
       id="polygon4640" />
  </g>
  <g
     id="g5496">
    <g
       transform="matrix(0.99987411,0,0,0.99987411,294.45187,1136.2295)"
       class="node"
       id="node10">
      <title
         id="title4629">{X}</title>
      <circle
         id="ellipse4631"
         cy="-572.99701"
         cx="75.599998"
         r="25.995399"
         style="fill:none;stroke:#000000" />
      <text
         id="text4633"
         font-size="14.00"
         y="-569.297"
         x="75.599998"
         style="font-size:14px;font-family:'Times New Roman', serif;text-anchor:middle">{X}</text>
    </g>
    <g
       transform="matrix(0.99987411,0,0,0.99987411,294.45187,1136.2295)"
       class="node"
       id="node2-0">
      <title
         id="title4643">{0, X}</title>
      <circle
         id="ellipse4645"
         cy="-773.83002"
         cx="115.548"
         r="35.194"
         style="fill:none;stroke:#000000" />
      <text
         id="text4647"
         font-size="14.00"
         y="-770.13"
         x="115.548"
         style="font-size:14px;font-family:'Times New Roman', serif;text-anchor:middle">{0, X}</text>
    </g>
    <g
       transform="matrix(0.99987411,0,0,0.99987411,294.45187,1136.2295)"
       class="node"
       id="node3-6">
      <title
         id="title4650">{1, X}</title>
      <circle
         id="ellipse4652"
         cy="-1097.8"
         cx="600.401"
         r="35.194"
         style="fill:none;stroke:#000000" />
      <text
         id="text4654"
         font-size="14.00"
         y="-1094.1"
         x="600.401"
         style="font-size:14px;font-family:'Times New Roman', serif;text-anchor:middle">{1, X}</text>
    </g>
    <g
       transform="matrix(0.99987411,0,0,0.99987411,294.45187,1136.2295)"
       class="edge"
       id="edge2-7">
      <title
         id="title4657">{0, X}-&gt;{1, X}</title>
      <path
         id="path4659"
         d="M 144.786,-793.366 C 228.485,-849.292 468.997,-1010 562.541,-1072.5"
         inkscape:connector-curvature="0"
         style="fill:none;stroke:#000000" />
      <polygon
         id="polygon4661"
         points="560.866,-1075.59 571.125,-1078.24 564.755,-1069.77 "
         style="fill:#000000;stroke:#000000" />
      <text
         id="text4663"
         font-size="14.00"
         y="-936.73297"
         x="350.164"
         style="font-size:14px;font-family:'Times New Roman', serif;text-anchor:middle">0</text>
    </g>
    <g
       transform="matrix(0.99987411,0,0,0.99987411,294.45187,1136.2295)"
       class="node"
       id="node11">
      <title
         id="title4666">{0, 1, X}</title>
      <circle
         id="ellipse4668"
         cy="-88.144203"
         cx="801.23297"
         r="44.393002"
         style="fill:none;stroke:#000000" />
      <text
         id="text4670"
         font-size="14.00"
         y="-84.444199"
         x="801.23297"
         style="font-size:14px;font-family:'Times New Roman', serif;text-anchor:middle">{0, 1, X}</text>
    </g>
    <g
       transform="matrix(0.99987411,0,0,0.99987411,294.45187,1136.2295)"
       class="edge"
       id="edge3-1">
      <title
         id="title4673">{0, X}-&gt;{0, 1, X}</title>
      <path
         id="path4675"
         d="m 140.765,-748.612 c 103.524,103.523 496.314,496.313 621.729,621.728"
         inkscape:connector-curvature="0"
         style="fill:none;stroke:#000000" />
      <polygon
         id="polygon4677"
         points="760.12,-124.308 765.07,-129.258 769.666,-119.712 "
         style="fill:#000000;stroke:#000000" />
      <text
         id="text4679"
         font-size="14.00"
         y="-441.548"
         x="448.129"
         style="font-size:14px;font-family:'Times New Roman', serif;text-anchor:middle">1</text>
    </g>
    <g
       transform="matrix(0.99987411,0,0,0.99987411,294.45187,1136.2295)"
       class="node"
       id="node4-4">
      <title
         id="title4682">{2, X}</title>
      <circle
         id="ellipse4684"
         cy="-1057.85"
         cx="399.56799"
         r="35.194"
         style="fill:none;stroke:#000000" />
      <text
         id="text4686"
         font-size="14.00"
         y="-1054.15"
         x="399.56799"
         style="font-size:14px;font-family:'Times New Roman', serif;text-anchor:middle">{2, X}</text>
    </g>
    <g
       transform="matrix(0.99987411,0,0,0.99987411,294.45187,1136.2295)"
       class="edge"
       id="edge4-8">
      <title
         id="title4689">{1, X}-&gt;{2, X}</title>
      <path
         id="path4691"
         d="m 565.876,-1090.93 c -33.624,6.69 -84.895,16.89 -121.617,24.19"
         inkscape:connector-curvature="0"
         style="fill:none;stroke:#000000" />
      <polygon
         id="polygon4693"
         points="434.314,-1064.76 443.439,-1070.14 444.805,-1063.28 "
         style="fill:#000000;stroke:#000000" />
      <text
         id="text4695"
         font-size="14.00"
         y="-1082.63"
         x="501.56799"
         style="font-size:14px;font-family:'Times New Roman', serif;text-anchor:middle">0</text>
    </g>
    <g
       transform="matrix(0.99987411,0,0,0.99987411,294.45187,1136.2295)"
       class="node"
       id="node12">
      <title
         id="title4698">{0, 2, X}</title>
      <circle
         id="ellipse4700"
         cy="-88.144203"
         cx="399.56799"
         r="44.393002"
         style="fill:none;stroke:#000000" />
      <text
         id="text4702"
         font-size="14.00"
         y="-84.444199"
         x="399.56799"
         style="font-size:14px;font-family:'Times New Roman', serif;text-anchor:middle">{0, 2, X}</text>
    </g>
    <g
       transform="matrix(0.99987411,0,0,0.99987411,294.45187,1136.2295)"
       class="edge"
       id="edge5-5">
      <title
         id="title4705">{1, X}-&gt;{0, 2, X}</title>
      <path
         id="path4707"
         d="M 593.546,-1063.34 C 563.859,-914.088 446.259,-322.875 410.162,-141.4"
         inkscape:connector-curvature="0"
         style="fill:none;stroke:#000000" />
      <polygon
         id="polygon4709"
         points="413.587,-140.678 408.203,-131.553 406.721,-142.044 "
         style="fill:#000000;stroke:#000000" />
      <text
         id="text4711"
         font-size="14.00"
         y="-606.16803"
         x="498.354"
         style="font-size:14px;font-family:'Times New Roman', serif;text-anchor:middle">1</text>
    </g>
    <g
       transform="matrix(0.99987411,0,0,0.99987411,294.45187,1136.2295)"
       class="node"
       id="node6-3">
      <title
         id="title4714">{3, X}</title>
      <circle
         id="ellipse4716"
         cy="-372.164"
         cx="115.548"
         r="35.184101"
         style="fill:none;stroke:#000000" />
      <circle
         id="ellipse4718"
         cy="-372.164"
         cx="115.548"
         r="39.194"
         style="fill:none;stroke:#000000" />
      <text
         id="text4720"
         font-size="14.00"
         y="-368.46399"
         x="115.548"
         style="font-size:14px;font-family:'Times New Roman', serif;text-anchor:middle">{3, X}</text>
    </g>
    <g
       transform="matrix(0.99987411,0,0,0.99987411,294.45187,1136.2295)"
       class="edge"
       id="edge6-4">
      <title
         id="title4723">{2, X}-&gt;{3, X}</title>
      <path
         id="path4725"
         d="m 386.06,-1025.24 c -46.192,111.521 -197.956,477.909 -251.556,607.313"
         inkscape:connector-curvature="0"
         style="fill:none;stroke:#000000" />
      <polygon
         id="polygon4727"
         points="131.26,-419.243 137.728,-416.564 130.667,-408.665 "
         style="fill:#000000;stroke:#000000" />
      <text
         id="text4729"
         font-size="14.00"
         y="-725.383"
         x="256.78201"
         style="font-size:14px;font-family:'Times New Roman', serif;text-anchor:middle">0</text>
    </g>
    <g
       transform="matrix(0.99987411,0,0,0.99987411,294.45187,1136.2295)"
       class="node"
       id="node14">
      <title
         id="title4732">{0, 3, X}</title>
      <circle
         id="ellipse4734"
         cy="-944.08698"
         cx="229.311"
         r="44.376598"
         style="fill:none;stroke:#000000" />
      <circle
         id="ellipse4736"
         cy="-944.08698"
         cx="229.311"
         r="48.393002"
         style="fill:none;stroke:#000000" />
      <text
         id="text4738"
         font-size="14.00"
         y="-940.38702"
         x="229.311"
         style="font-size:14px;font-family:'Times New Roman', serif;text-anchor:middle">{0, 3, X}</text>
    </g>
    <g
       transform="matrix(0.99987411,0,0,0.99987411,294.45187,1136.2295)"
       class="edge"
       id="edge7-4">
      <title
         id="title4741">{2, X}-&gt;{0, 3, X}</title>
      <path
         id="path4743"
         d="m 370.3,-1038.29 c -25.268,16.88 -62.292,41.619 -92.059,61.509"
         inkscape:connector-curvature="0"
         style="fill:none;stroke:#000000" />
      <polygon
         id="polygon4745"
         points="269.656,-971.045 276.026,-979.511 279.915,-973.691 "
         style="fill:#000000;stroke:#000000" />
      <text
         id="text4747"
         font-size="14.00"
         y="-1011.34"
         x="320.76999"
         style="font-size:14px;font-family:'Times New Roman', serif;text-anchor:middle">1</text>
    </g>
    <g
       transform="matrix(0.99987411,0,0,0.99987411,294.45187,1136.2295)"
       class="node"
       id="node5-7">
      <title
         id="title4750">{0, 1, 2, X}</title>
      <circle
         id="ellipse4752"
         cy="-1057.85"
         cx="801.23297"
         r="53.890499"
         style="fill:none;stroke:#000000" />
      <text
         id="text4754"
         font-size="14.00"
         y="-1054.15"
         x="801.23297"
         style="font-size:14px;font-family:'Times New Roman', serif;text-anchor:middle">{0, 1, 2, X}</text>
    </g>
    <g
       transform="matrix(0.99987411,0,0,0.99987411,294.45187,1136.2295)"
       class="node"
       id="node9">
      <title
         id="title4757">{1, 2, 3, X}</title>
      <circle
         id="ellipse4759"
         cy="-773.83002"
         cx="1085.25"
         r="53.894299"
         style="fill:none;stroke:#000000" />
      <circle
         id="ellipse4761"
         cy="-773.83002"
         cx="1085.25"
         r="57.890499"
         style="fill:none;stroke:#000000" />
      <text
         id="text4763"
         font-size="14.00"
         y="-770.13"
         x="1085.25"
         style="font-size:14px;font-family:'Times New Roman', serif;text-anchor:middle">{1, 2, 3, X}</text>
    </g>
    <g
       transform="matrix(0.99987411,0,0,0.99987411,294.45187,1136.2295)"
       class="edge"
       id="edge8-1">
      <title
         id="title4766">{0, 1, 2, X}-&gt;{1, 2, 3, X}</title>
      <path
         id="path4768"
         d="m 839.538,-1019.55 c 51.008,51.013 141.267,141.271 197.042,197.048"
         inkscape:connector-curvature="0"
         style="fill:none;stroke:#000000" />
      <polygon
         id="polygon4770"
         points="1043.88,-815.204 1034.33,-819.801 1039.28,-824.75 "
         style="fill:#000000;stroke:#000000" />
      <text
         id="text4772"
         font-size="14.00"
         y="-924.82397"
         x="934.55902"
         style="font-size:14px;font-family:'Times New Roman', serif;text-anchor:middle">0</text>
    </g>
    <g
       transform="matrix(0.99987411,0,0,0.99987411,294.45187,1136.2295)"
       class="node"
       id="node17">
      <title
         id="title4775">{0, 1, 2, 3, X}</title>
      <circle
         id="ellipse4777"
         cy="-944.08698"
         cx="971.49103"
         r="63.086201"
         style="fill:none;stroke:#000000" />
      <circle
         id="ellipse4779"
         cy="-944.08698"
         cx="971.49103"
         r="67.088799"
         style="fill:none;stroke:#000000" />
      <text
         id="text4781"
         font-size="14.00"
         y="-940.38702"
         x="971.49103"
         style="font-size:14px;font-family:'Times New Roman', serif;text-anchor:middle">{0, 1, 2, 3, X}</text>
    </g>
    <g
       transform="matrix(0.99987411,0,0,0.99987411,294.45187,1136.2295)"
       class="edge"
       id="edge9-8">
      <title
         id="title4784">{0, 1, 2, X}-&gt;{0, 1, 2, 3, X}</title>
      <path
         id="path4786"
         d="m 846.412,-1027.66 c 18.533,12.38 40.334,26.95 60.498,40.421"
         inkscape:connector-curvature="0"
         style="fill:none;stroke:#000000" />
      <polygon
         id="polygon4788"
         points="909.067,-990.007 915.437,-981.541 905.178,-984.187 "
         style="fill:#000000;stroke:#000000" />
      <text
         id="text4790"
         font-size="14.00"
         y="-1011.25"
         x="873.16101"
         style="font-size:14px;font-family:'Times New Roman', serif;text-anchor:middle">1</text>
    </g>
    <g
       transform="matrix(0.99987411,0,0,0.99987411,294.45187,1136.2295)"
       class="edge"
       id="edge11">
      <title
         id="title4793">{3, X}-&gt;{0, X}</title>
      <path
         id="path4795"
         d="m 115.548,-411.409 c 0,-74.812 0,-237.443 0,-316.895"
         inkscape:connector-curvature="0"
         style="fill:none;stroke:#000000" />
      <polygon
         id="polygon4797"
         points="115.548,-738.487 119.048,-728.487 112.048,-728.487 "
         style="fill:#000000;stroke:#000000" />
      <text
         id="text4799"
         font-size="14.00"
         y="-573.65601"
         x="112.048"
         style="font-size:14px;font-family:'Times New Roman', serif;text-anchor:middle">1</text>
    </g>
    <g
       transform="matrix(0.99987411,0,0,0.99987411,294.45187,1136.2295)"
       class="edge"
       id="edge10-8">
      <title
         id="title4802">{3, X}-&gt;{X}</title>
      <path
         id="path4804"
         d="m 107.846,-410.887 c -7.285,-36.621 -18.1244,-91.116 -25.189,-126.632"
         inkscape:connector-curvature="0"
         style="fill:none;stroke:#000000" />
      <polygon
         id="polygon4806"
         points="86.066,-538.322 79.2005,-536.956 80.6823,-547.447 "
         style="fill:#000000;stroke:#000000" />
      <text
         id="text4808"
         font-size="14.00"
         y="-478.00299"
         x="91.751297"
         style="font-size:14px;font-family:'Times New Roman', serif;text-anchor:middle">0</text>
    </g>
    <g
       transform="matrix(0.99987411,0,0,0.99987411,294.45187,1136.2295)"
       class="node"
       id="node7">
      <title
         id="title4811">{0, 1, 3, X}</title>
      <circle
         id="ellipse4813"
         cy="-372.164"
         cx="1085.25"
         r="53.894299"
         style="fill:none;stroke:#000000" />
      <circle
         id="ellipse4815"
         cy="-372.164"
         cx="1085.25"
         r="57.890499"
         style="fill:none;stroke:#000000" />
      <text
         id="text4817"
         font-size="14.00"
         y="-368.46399"
         x="1085.25"
         style="font-size:14px;font-family:'Times New Roman', serif;text-anchor:middle">{0, 1, 3, X}</text>
    </g>
    <g
       transform="matrix(0.99987411,0,0,0.99987411,294.45187,1136.2295)"
       class="edge"
       id="edge13">
      <title
         id="title4820">{0, 1, 3, X}-&gt;{0, 1, 2, X}</title>
      <path
         id="path4822"
         d="M 1062.97,-425.969 C 1010.72,-552.096 880.657,-866.105 826.022,-998.005"
         inkscape:connector-curvature="0"
         style="fill:none;stroke:#000000" />
      <polygon
         id="polygon4824"
         points="822.064,-1007.56 829.125,-999.661 822.657,-996.982 "
         style="fill:#000000;stroke:#000000" />
      <text
         id="text4826"
         font-size="14.00"
         y="-715.78699"
         x="940.99402"
         style="font-size:14px;font-family:'Times New Roman', serif;text-anchor:middle">1</text>
    </g>
    <g
       transform="matrix(0.99987411,0,0,0.99987411,294.45187,1136.2295)"
       class="node"
       id="node13">
      <title
         id="title4829">{1, 2, X}</title>
      <circle
         id="ellipse4831"
         cy="-201.907"
         cx="971.49103"
         r="44.393002"
         style="fill:none;stroke:#000000" />
      <text
         id="text4833"
         font-size="14.00"
         y="-198.207"
         x="971.49103"
         style="font-size:14px;font-family:'Times New Roman', serif;text-anchor:middle">{1, 2, X}</text>
    </g>
    <g
       transform="matrix(0.99987411,0,0,0.99987411,294.45187,1136.2295)"
       class="edge"
       id="edge12">
      <title
         id="title4836">{0, 1, 3, X}-&gt;{1, 2, X}</title>
      <path
         id="path4838"
         d="m 1052.96,-323.831 c -16.09,24.079 -35.43,53.021 -51.23,76.663"
         inkscape:connector-curvature="0"
         style="fill:none;stroke:#000000" />
      <polygon
         id="polygon4840"
         points="1004.55,-245.086 996.086,-238.716 998.732,-248.975 "
         style="fill:#000000;stroke:#000000" />
      <text
         id="text4842"
         font-size="14.00"
         y="-289.29901"
         x="1023.85"
         style="font-size:14px;font-family:'Times New Roman', serif;text-anchor:middle">0</text>
    </g>
    <g
       transform="matrix(0.99987411,0,0,0.99987411,294.45187,1136.2295)"
       class="node"
       id="node8">
      <title
         id="title4845">{0, 2, 3, X}</title>
      <circle
         id="ellipse4847"
         cy="-572.99701"
         cx="1125.2"
         r="53.894299"
         style="fill:none;stroke:#000000" />
      <circle
         id="ellipse4849"
         cy="-572.99701"
         cx="1125.2"
         r="57.890499"
         style="fill:none;stroke:#000000" />
      <text
         id="text4851"
         font-size="14.00"
         y="-569.297"
         x="1125.2"
         style="font-size:14px;font-family:'Times New Roman', serif;text-anchor:middle">{0, 2, 3, X}</text>
    </g>
    <g
       transform="matrix(0.99987411,0,0,0.99987411,294.45187,1136.2295)"
       class="edge"
       id="edge15">
      <title
         id="title4854">{0, 2, 3, X}-&gt;{0, 1, 3, X}</title>
      <path
         id="path4856"
         d="m 1113.86,-515.984 c -4.74,23.851 -10.29,51.746 -15.23,76.588"
         inkscape:connector-curvature="0"
         style="fill:none;stroke:#000000" />
      <polygon
         id="polygon4858"
         points="1095.14,-439.811 1102.01,-438.445 1096.62,-429.32 "
         style="fill:#000000;stroke:#000000" />
      <text
         id="text4860"
         font-size="14.00"
         y="-481.48999"
         x="1102.74"
         style="font-size:14px;font-family:'Times New Roman', serif;text-anchor:middle">1</text>
    </g>
    <g
       transform="matrix(0.99987411,0,0,0.99987411,294.45187,1136.2295)"
       class="node"
       id="node15">
      <title
         id="title4863">{1, 3, X}</title>
      <circle
         id="ellipse4865"
         cy="-201.907"
         cx="229.311"
         r="44.376598"
         style="fill:none;stroke:#000000" />
      <circle
         id="ellipse4867"
         cy="-201.907"
         cx="229.311"
         r="48.393002"
         style="fill:none;stroke:#000000" />
      <text
         id="text4869"
         font-size="14.00"
         y="-198.207"
         x="229.311"
         style="font-size:14px;font-family:'Times New Roman', serif;text-anchor:middle">{1, 3, X}</text>
    </g>
    <g
       transform="matrix(0.99987411,0,0,0.99987411,294.45187,1136.2295)"
       class="edge"
       id="edge14">
      <title
         id="title4872">{0, 2, 3, X}-&gt;{1, 3, X}</title>
      <path
         id="path4874"
         d="m 1071.51,-550.757 c -159.274,65.973 -627.957,260.108 -787.951,326.38"
         inkscape:connector-curvature="0"
         style="fill:none;stroke:#000000" />
      <polygon
         id="polygon4876"
         points="273.922,-220.385 281.821,-227.446 284.5,-220.978 "
         style="fill:#000000;stroke:#000000" />
      <text
         id="text4878"
         font-size="14.00"
         y="-391.367"
         x="674.03497"
         style="font-size:14px;font-family:'Times New Roman', serif;text-anchor:middle">0</text>
    </g>
    <g
       transform="matrix(0.99987411,0,0,0.99987411,294.45187,1136.2295)"
       class="edge"
       id="edge17">
      <title
         id="title4881">{1, 2, 3, X}-&gt;{0, 2, 3, X}</title>
      <path
         id="path4883"
         d="m 1096.59,-716.816 c 4.75,23.85 10.3,51.745 15.24,76.587"
         inkscape:connector-curvature="0"
         style="fill:none;stroke:#000000" />
      <polygon
         id="polygon4885"
         points="1108.45,-639.278 1115.31,-640.644 1113.83,-630.153 "
         style="fill:#000000;stroke:#000000" />
      <text
         id="text4887"
         font-size="14.00"
         y="-682.32202"
         x="1100.71"
         style="font-size:14px;font-family:'Times New Roman', serif;text-anchor:middle">1</text>
    </g>
    <g
       transform="matrix(0.99987411,0,0,0.99987411,294.45187,1136.2295)"
       class="node"
       id="node16">
      <title
         id="title4890">{2, 3, X}</title>
      <circle
         id="ellipse4892"
         cy="-48.196098"
         cx="600.401"
         r="44.376598"
         style="fill:none;stroke:#000000" />
      <circle
         id="ellipse4894"
         cy="-48.196098"
         cx="600.401"
         r="48.393002"
         style="fill:none;stroke:#000000" />
      <text
         id="text4896"
         font-size="14.00"
         y="-44.496101"
         x="600.401"
         style="font-size:14px;font-family:'Times New Roman', serif;text-anchor:middle">{2, 3, X}</text>
    </g>
    <g
       transform="matrix(0.99987411,0,0,0.99987411,294.45187,1136.2295)"
       class="edge"
       id="edge16">
      <title
         id="title4899">{1, 2, 3, X}-&gt;{2, 3, X}</title>
      <path
         id="path4901"
         d="m 1052.88,-725.375 c -88.132,131.894 -331.613,496.29 -419.937,628.4757"
         inkscape:connector-curvature="0"
         style="fill:none;stroke:#000000" />
      <polygon
         id="polygon4903"
         points="627.353,-88.5332 629.999,-98.7924 635.819,-94.9034 "
         style="fill:#000000;stroke:#000000" />
      <text
         id="text4905"
         font-size="14.00"
         y="-414.93701"
         x="839.40997"
         style="font-size:14px;font-family:'Times New Roman', serif;text-anchor:middle">0</text>
    </g>
    <g
       transform="matrix(0.99987411,0,0,0.99987411,294.45187,1136.2295)"
       class="edge"
       id="edge19">
      <title
         id="title4908">{X}-&gt;{0, X}</title>
      <path
         id="path4910"
         d="m 80.7407,-598.841 c 6.5523,-32.941 17.9834,-90.409 25.9513,-130.465"
         inkscape:connector-curvature="0"
         style="fill:none;stroke:#000000" />
      <polygon
         id="polygon4912"
         points="110.17,-728.852 103.304,-730.218 108.688,-739.343 "
         style="fill:#000000;stroke:#000000" />
      <text
         id="text4914"
         font-size="14.00"
         y="-667.87299"
         x="90.216202"
         style="font-size:14px;font-family:'Times New Roman', serif;text-anchor:middle">1</text>
    </g>
    <g
       transform="matrix(0.99987411,0,0,0.99987411,294.45187,1136.2295)"
       class="edge"
       id="edge18">
      <title
         id="title4917">{X}-&gt;{X}</title>
      <path
         id="path4919"
         d="m 100.919,-579.706 c 10.155,-0.379 18.679,1.858 18.679,6.709 0,3.108 -3.498,5.143 -8.682,6.104"
         inkscape:connector-curvature="0"
         style="fill:none;stroke:#000000" />
      <polygon
         id="polygon4921"
         points="111.112,-563.398 100.919,-566.288 110.69,-570.386 "
         style="fill:#000000;stroke:#000000" />
      <text
         id="text4923"
         font-size="14.00"
         y="-569.297"
         x="123.098"
         style="font-size:14px;font-family:'Times New Roman', serif;text-anchor:middle">0</text>
    </g>
    <g
       transform="matrix(0.99987411,0,0,0.99987411,294.45187,1136.2295)"
       class="edge"
       id="edge21">
      <title
         id="title4926">{0, 1, X}-&gt;{0, 1, 2, X}</title>
      <path
         id="path4928"
         d="m 801.233,-132.65 c 0,-155.96 0,-678.187 0,-861.187"
         inkscape:connector-curvature="0"
         style="fill:none;stroke:#000000" />
      <polygon
         id="polygon4930"
         points="801.233,-1003.85 804.734,-993.848 797.734,-993.848 "
         style="fill:#000000;stroke:#000000" />
      <text
         id="text4932"
         font-size="14.00"
         y="-567.04303"
         x="797.73297"
         style="font-size:14px;font-family:'Times New Roman', serif;text-anchor:middle">1</text>
    </g>
    <g
       transform="matrix(0.99987411,0,0,0.99987411,294.45187,1136.2295)"
       class="edge"
       id="edge20">
      <title
         id="title4935">{0, 1, X}-&gt;{1, 2, X}</title>
      <path
         id="path4937"
         d="m 838.177,-112.829 c 25.769,-17.218 60.321,-40.305 87.793,-58.661"
         inkscape:connector-curvature="0"
         style="fill:none;stroke:#000000" />
      <polygon
         id="polygon4939"
         points="928.25,-168.804 924.361,-174.624 934.62,-177.27 "
         style="fill:#000000;stroke:#000000" />
      <text
         id="text4941"
         font-size="14.00"
         y="-145.96001"
         x="878.573"
         style="font-size:14px;font-family:'Times New Roman', serif;text-anchor:middle">0</text>
    </g>
    <g
       transform="matrix(0.99987411,0,0,0.99987411,294.45187,1136.2295)"
       class="edge"
       id="edge23">
      <title
         id="title4944">{0, 2, X}-&gt;{0, 1, 3, X}</title>
      <path
         id="path4946"
         d="m 440.408,-105.06 c 115.129,-47.689 442.928,-183.467 581.632,-240.919"
         inkscape:connector-curvature="0"
         style="fill:none;stroke:#000000" />
      <polygon
         id="polygon4948"
         points="1020.71,-349.22 1031.29,-349.813 1023.39,-342.752 "
         style="fill:#000000;stroke:#000000" />
      <text
         id="text4950"
         font-size="14.00"
         y="-229.32001"
         x="727.72198"
         style="font-size:14px;font-family:'Times New Roman', serif;text-anchor:middle">1</text>
    </g>
    <g
       transform="matrix(0.99987411,0,0,0.99987411,294.45187,1136.2295)"
       class="edge"
       id="edge22">
      <title
         id="title4953">{0, 2, X}-&gt;{1, 3, X}</title>
      <path
         id="path4955"
         d="m 359.901,-107.845 c -25.565,-15.564 -58.84,-37.595 -85.418,-56.465"
         inkscape:connector-curvature="0"
         style="fill:none;stroke:#000000" />
      <polygon
         id="polygon4957"
         points="266.108,-170.313 276.275,-167.332 272.197,-161.643 "
         style="fill:#000000;stroke:#000000" />
      <text
         id="text4959"
         font-size="14.00"
         y="-139.877"
         x="313.69199"
         style="font-size:14px;font-family:'Times New Roman', serif;text-anchor:middle">0</text>
    </g>
    <g
       transform="matrix(0.99987411,0,0,0.99987411,294.45187,1136.2295)"
       class="edge"
       id="edge25">
      <title
         id="title4962">{1, 2, X}-&gt;{0, 2, 3, X}</title>
      <path
         id="path4964"
         d="m 988.528,-243.038 c 26.802,-64.695 78.992,-190.694 110.552,-266.89"
         inkscape:connector-curvature="0"
         style="fill:none;stroke:#000000" />
      <polygon
         id="polygon4966"
         points="1102.42,-508.844 1095.95,-511.523 1103.01,-519.423 "
         style="fill:#000000;stroke:#000000" />
      <text
         id="text4968"
         font-size="14.00"
         y="-380.28299"
         x="1040.3"
         style="font-size:14px;font-family:'Times New Roman', serif;text-anchor:middle">1</text>
    </g>
    <g
       transform="matrix(0.99987411,0,0,0.99987411,294.45187,1136.2295)"
       class="edge"
       id="edge24">
      <title
         id="title4971">{1, 2, X}-&gt;{2, 3, X}</title>
      <path
         id="path4973"
         d="m 930.36,-184.87 c -67.32,27.885 -201.015,83.264 -275.908,114.2854"
         inkscape:connector-curvature="0"
         style="fill:none;stroke:#000000" />
      <polygon
         id="polygon4975"
         points="655.753,-67.3353 645.175,-66.7419 653.074,-73.8024 "
         style="fill:#000000;stroke:#000000" />
      <text
         id="text4977"
         font-size="14.00"
         y="-131.52699"
         x="788.90601"
         style="font-size:14px;font-family:'Times New Roman', serif;text-anchor:middle">0</text>
    </g>
    <g
       transform="matrix(0.99987411,0,0,0.99987411,294.45187,1136.2295)"
       class="edge"
       id="edge26">
      <title
         id="title4980">{0, 3, X}-&gt;{1, X}</title>
      <path
         id="path4982"
         d="m 274.073,-962.628 c 72.263,-29.933 213.642,-88.492 284.191,-117.712"
         inkscape:connector-curvature="0"
         style="fill:none;stroke:#000000" />
      <polygon
         id="polygon4984"
         points="567.734,-1084.27 559.835,-1077.21 557.156,-1083.67 "
         style="fill:#000000;stroke:#000000" />
      <text
         id="text4986"
         font-size="14.00"
         y="-1010.29"
         x="412.668"
         style="font-size:14px;font-family:'Times New Roman', serif;text-anchor:middle">0</text>
    </g>
    <g
       transform="matrix(0.99987411,0,0,0.99987411,294.45187,1136.2295)"
       class="edge"
       id="edge27">
      <title
         id="title4989">{0, 3, X}-&gt;{0, 1, X}</title>
      <path
         id="path4991"
         d="m 256.129,-903.951 c 94.839,141.937 414.075,619.707 514.556,770.088"
         inkscape:connector-curvature="0"
         style="fill:none;stroke:#000000" />
      <polygon
         id="polygon4993"
         points="767.96,-131.641 773.781,-135.53 776.426,-125.271 "
         style="fill:#000000;stroke:#000000" />
      <text
         id="text4995"
         font-size="14.00"
         y="-522.70697"
         x="509.90701"
         style="font-size:14px;font-family:'Times New Roman', serif;text-anchor:middle">1</text>
    </g>
    <g
       transform="matrix(0.99987411,0,0,0.99987411,294.45187,1136.2295)"
       class="edge"
       id="edge28">
      <title
         id="title4998">{1, 3, X}-&gt;{2, X}</title>
      <path
         id="path5000"
         d="m 238.768,-249.452 c 29.989,-150.763 122.696,-616.835 151.897,-763.638"
         inkscape:connector-curvature="0"
         style="fill:none;stroke:#000000" />
      <polygon
         id="polygon5002"
         points="387.272,-1013.97 392.656,-1023.1 394.138,-1012.61 "
         style="fill:#000000;stroke:#000000" />
      <text
         id="text5004"
         font-size="14.00"
         y="-635.07098"
         x="311.216"
         style="font-size:14px;font-family:'Times New Roman', serif;text-anchor:middle">0</text>
    </g>
    <g
       transform="matrix(0.99987411,0,0,0.99987411,294.45187,1136.2295)"
       class="edge"
       id="edge29">
      <title
         id="title5007">{1, 3, X}-&gt;{0, 2, X}</title>
      <path
         id="path5009"
         d="m 272.462,-180.074 c 26.279,16.157 59.652,38.372 85.621,56.962"
         inkscape:connector-curvature="0"
         style="fill:none;stroke:#000000" />
      <polygon
         id="polygon5011"
         points="366.237,-117.216 356.082,-120.24 360.184,-125.912 "
         style="fill:#000000;stroke:#000000" />
      <text
         id="text5013"
         font-size="14.00"
         y="-155.39301"
         x="311.77301"
         style="font-size:14px;font-family:'Times New Roman', serif;text-anchor:middle">1</text>
    </g>
    <g
       transform="matrix(0.99987411,0,0,0.99987411,294.45187,1136.2295)"
       class="edge"
       id="edge30">
      <title
         id="title5016">{2, 3, X}-&gt;{3, X}</title>
      <path
         id="path5018"
         d="M 560.311,-74.9834 C 469.426,-135.711 248.507,-283.324 156.658,-344.695"
         inkscape:connector-curvature="0"
         style="fill:none;stroke:#000000" />
      <polygon
         id="polygon5020"
         points="158.44,-347.714 154.551,-341.894 148.181,-350.36 "
         style="fill:#000000;stroke:#000000" />
      <text
         id="text5022"
         font-size="14.00"
         y="-213.63901"
         x="354.98401"
         style="font-size:14px;font-family:'Times New Roman', serif;text-anchor:middle">0</text>
    </g>
    <g
       transform="matrix(0.99987411,0,0,0.99987411,294.45187,1136.2295)"
       class="edge"
       id="edge31">
      <title
         id="title5025">{2, 3, X}-&gt;{0, 3, X}</title>
      <path
         id="path5027"
         d="M 581.871,-92.93 C 519.773,-242.85 319.134,-727.233 251.675,-890.095"
         inkscape:connector-curvature="0"
         style="fill:none;stroke:#000000" />
      <polygon
         id="polygon5029"
         points="248.398,-888.861 247.804,-899.44 254.865,-891.54 "
         style="fill:#000000;stroke:#000000" />
      <text
         id="text5031"
         font-size="14.00"
         y="-495.31201"
         x="413.27301"
         style="font-size:14px;font-family:'Times New Roman', serif;text-anchor:middle">1</text>
    </g>
    <g
       transform="matrix(0.99987411,0,0,0.99987411,294.45187,1136.2295)"
       class="edge"
       id="edge32">
      <title
         id="title5034">{0, 1, 2, 3, X}-&gt;{1, 2, 3, X}</title>
      <path
         id="path5036"
         d="m 1008.74,-888.338 c 12.36,18.502 26.14,39.114 38.55,57.696"
         inkscape:connector-curvature="0"
         style="fill:none;stroke:#000000" />
      <polygon
         id="polygon5038"
         points="1052.89,-822.263 1044.43,-828.633 1050.25,-832.522 "
         style="fill:#000000;stroke:#000000" />
      <text
         id="text5040"
         font-size="14.00"
         y="-863.28998"
         x="1024.52"
         style="font-size:14px;font-family:'Times New Roman', serif;text-anchor:middle">0</text>
    </g>
    <g
       transform="matrix(0.99987411,0,0,0.99987411,294.45187,1136.2295)"
       class="edge"
       id="edge33">
      <title
         id="title5043">{0, 1, 2, 3, X}-&gt;{0, 1, 2, 3, X}</title>
      <path
         id="path5045"
         d="m 1038.52,-950.303 c 10.69,0.909 18.02,2.981 18.02,6.216 0,2.072 -3.01,3.667 -7.98,4.785"
         inkscape:connector-curvature="0"
         style="fill:none;stroke:#000000" />
      <polygon
         id="polygon5047"
         points="1047.92,-942.747 1048.91,-935.817 1038.52,-937.871 "
         style="fill:#000000;stroke:#000000" />
      <text
         id="text5049"
         font-size="14.00"
         y="-940.38702"
         x="1060.04"
         style="font-size:14px;font-family:'Times New Roman', serif;text-anchor:middle">1</text>
    </g>
  </g>
</svg>
